<svg width="200" height="200" viewBox="0 0 200 200" fill="none" xmlns="http://www.w3.org/2000/svg">
<rect width="200" height="200" rx="48" fill="url(#paint0_linear_2_5)"/>
<path d="M66.6051 171V105.545H86.8466V117.477H87.5284C88.7216 113.159 90.6676 109.949 93.3665 107.847C96.0653 105.716 99.2045 104.651 102.784 104.651C103.75 104.651 104.744 104.722 105.767 104.864C106.79 104.977 107.741 105.162 108.622 105.418V123.528C107.628 123.187 106.321 122.918 104.702 122.719C103.111 122.52 101.69 122.42 100.44 122.42C97.9688 122.42 95.7386 122.974 93.75 124.082C91.7898 125.162 90.2415 126.682 89.1051 128.642C87.9972 130.574 87.4432 132.847 87.4432 135.46V171H66.6051ZM144.311 172.236C137.464 172.236 131.555 170.886 126.584 168.188C121.641 165.46 117.834 161.582 115.163 156.554C112.521 151.497 111.2 145.489 111.2 138.528C111.2 131.767 112.536 125.858 115.206 120.801C117.876 115.716 121.641 111.767 126.499 108.955C131.357 106.114 137.081 104.693 143.672 104.693C148.331 104.693 152.592 105.418 156.456 106.866C160.32 108.315 163.658 110.46 166.47 113.301C169.283 116.142 171.47 119.651 173.033 123.827C174.595 127.974 175.376 132.733 175.376 138.102V143.301H118.487V131.199H155.987C155.959 128.983 155.433 127.009 154.411 125.276C153.388 123.543 151.982 122.193 150.192 121.227C148.43 120.233 146.399 119.736 144.098 119.736C141.768 119.736 139.68 120.261 137.834 121.312C135.987 122.335 134.524 123.741 133.445 125.531C132.365 127.293 131.797 129.295 131.74 131.54V143.855C131.74 146.526 132.266 148.869 133.317 150.886C134.368 152.875 135.859 154.423 137.791 155.531C139.723 156.639 142.024 157.193 144.695 157.193C146.541 157.193 148.217 156.937 149.723 156.426C151.229 155.915 152.521 155.162 153.601 154.168C154.68 153.173 155.49 151.952 156.03 150.503L175.163 151.057C174.368 155.347 172.621 159.082 169.922 162.264C167.251 165.418 163.743 167.875 159.396 169.636C155.05 171.369 150.021 172.236 144.311 172.236Z" fill="white"/>
<defs>
<linearGradient id="paint0_linear_2_5" x1="2.13981e-06" y1="5" x2="242" y2="230" gradientUnits="userSpaceOnUse">
<stop stop-color="#0085FF"/>
<stop offset="1" stop-color="#8FC9FF"/>
</linearGradient>
</defs>
</svg>
